<svg version="1.0" id="MatOzone" xmlns="http://www.w3.org/2000/svg" xmlns:xlink="http://www.w3.org/1999/xlink" x="0px" y="0px"
	  width="18px" height="18px" viewBox="0 0 18 18">
<style type="text/css">
	.st0{fill-rule:evenodd;clip-rule:evenodd;fill:#FF4B4B;}
	.st1{fill:#FFC800;}
</style>
<path id="Rectangle_1_" class="st0" d="M14.5,1h-11C2.3,1,1.9,1,1.4,1.2S0.6,1.9,0.3,2.4C0.2,2.8,0,3.2,0,4.3v6.7
	c0,1.1,0.2,1.6,0.4,2c0.3,0.4,0.6,0.8,1.1,1.1c0.4,0.2,0.8,0.3,2.1,0.3h10.9c1.2,0,1.6-0.1,2.1-0.3c0.4-0.2,0.8-0.6,1.1-1.1
	c0.1-0.4,0.3-0.8,0.3-2V4.3c0-1.1-0.2-1.6-0.4-2c-0.3-0.5-0.6-0.8-1.1-1.1C16.1,1.1,15.6,1,14.5,1z"/>
<path id="_x34_" class="st1" d="M6.7,9.3H6.4c-0.1,0-0.2-0.1-0.2-0.2c0-0.1,0-0.1,0-0.1l0.2-0.3l0,0L6.1,8.4C6,8.3,6.1,8.2,6.2,8.2
	s0.1,0,0.1,0l0.5,0.1c0.1,0,0.1,0,0.1,0L7,8c0.1,0,0.2,0,0.3,0l0.1,0.1l0.1,0.3c0,0.1,0,0.1,0.1,0.1l0.3,0.1C8,8.7,8,8.8,8,8.8
	c0,0.1-0.1,0.1-0.1,0.1L7.5,9L7.4,9.1L7.3,9.4c0,0.1-0.1,0.2-0.2,0.2C7,9.6,7,9.6,7,9.5L6.7,9.3C6.8,9.3,6.8,9.2,6.7,9.3z"/>
<path id="_x33_" class="st1" d="M8.7,7.8L8.4,7.9c-0.1,0.1-0.1,0-0.2,0c0-0.1,0-0.1,0-0.1l0.1-0.3c0-0.1,0-0.1,0-0.1L8,7.1
	C7.9,7.1,7.9,7,8,6.9l0.1-0.1l0.3-0.1c0.1,0,0.1,0,0.1-0.1l0.1-0.3c0.1-0.1,0.2-0.1,0.2-0.1c0.1,0,0.1,0.1,0.1,0.1L9,6.7l0.1,0.1
	l0.3,0.1C9.5,6.9,9.6,7,9.6,7v0.1L9.3,7.4c0,0-0.1,0.1,0,0.1l0.1,0.3C9.4,7.9,9.3,8,9.2,8C9.1,8,9.1,8,9.1,8L8.8,7.8H8.7z"/>
<path id="_x32_" class="st1" d="M8.9,5.5L8.7,5.7c-0.1,0.1-0.2,0.1-0.3,0c-0.1,0-0.1-0.1-0.1-0.1l0-0.3c0-0.1,0-0.1-0.1-0.1L8,5.2
	C7.9,5.1,7.9,5,7.9,4.9S8,4.8,8,4.8l0.3-0.1l0.1-0.1l0.1-0.3c0-0.1,0.1-0.2,0.2-0.2c0.1,0,0.1,0,0.1,0.1L9,4.4c0,0,0.1,0.1,0.1,0
	l0.3-0.1c0.1,0,0.2,0.1,0.2,0.1c0,0.1,0,0.1,0,0.1L9.3,5v0.1l0.2,0.3c0.1,0.1,0,0.2-0.1,0.2s-0.1,0-0.1,0L8.9,5.5L8.9,5.5z"/>
<path id="_x31_" class="st1" d="M6.7,4H6.4C6.2,4,6.2,4,6.1,3.9c0-0.1,0-0.1,0-0.1l0.2-0.3V3.4L6.1,3.1c0-0.1,0-0.1,0.1-0.2
	c0.1,0,0.1,0,0.1,0L6.6,3c0.1,0,0.1,0,0.1,0l0.2-0.2c0.1-0.1,0.2-0.1,0.3,0l0.1,0.1l0.1,0.3c0,0.1,0,0.1,0.1,0.1l0.3,0.1
	c0.1,0.1,0.1,0.2,0.1,0.2c0,0.1-0.1,0.1-0.1,0.1L7.4,3.8l0,0L7.3,4.1c0,0.1-0.1,0.2-0.2,0.2C7,4.3,7,4.3,7,4.2L6.7,4
	C6.8,4,6.8,4,6.7,4z"/>
<path id="Estrella_Gran" class="st1" d="M4.3,7.3L3.7,7.6c-0.2,0.1-0.5,0-0.6-0.2C3,7.4,3,7.3,3,7.3l0.1-0.7c0-0.1,0-0.1-0.1-0.2
	L2.6,6c-0.2-0.2-0.2-0.4,0-0.6c0.1-0.1,0.2-0.1,0.2-0.1l0.7-0.1c0.1,0,0.1-0.1,0.2-0.1L4,4.4c0.1-0.2,0.3-0.3,0.5-0.2
	c0.1,0.1,0.2,0.1,0.2,0.2L5,5c0,0.1,0.1,0.1,0.1,0.1l0.7,0.1c0.3,0,0.4,0.2,0.4,0.4c0,0.1-0.1,0.2-0.1,0.2L5.6,6.4v0.1l0.1,0.7
	c0.1,0.2-0.1,0.4-0.3,0.4c-0.1,0-0.2,0-0.2-0.1L4.5,7.3C4.4,7.3,4.3,7.3,4.3,7.3z"/>
</svg>
